# Alias OBJ Model File
# Exported from SketchUp, (c) 2000-2012 Trimble Navigation Limited
# File units = meters

mtllib VM.mtl

g Mesh1 Model

usemtl _5
v 10 10 -0
vt 393.701 393.701
vn 0 0 1
v 0 0 -0
vt 0 0
v 10 0 -0
vt 393.701 0
f 1/1/1 2/2/1 3/3/1

v 0 10 -0
vt 0 393.701
f 2/2/1 1/1/1 4/4/1

vn 0 1 -0
v 0 10 -10
f 1/3/2 5/4/2 4/2/2

v 10 10 -10
f 5/4/2 1/3/2 6/1/2

v 10 9 -1
vt 39.3701 354.331
vn 1 1.98894e-16 -7.78532e-17
vt -3.06509e-14 393.701
f 7/5/3 6/1/3 1/6/3

v 10 9 -10
vt 393.701 354.331
f 6/1/3 7/5/3 8/7/3

usemtl _6
v 11 9 -1
vt 433.071 39.3701
vt 393.701 39.3701
f 9/8/2 8/1/2 7/9/2

v 11 9 -11
vt 433.071 433.071
f 10/10/2 8/1/2 9/8/2

v 1 9 -11
vt 39.3701 433.071
f 11/11/2 8/1/2 10/10/2

v 1 9 -10
vt 39.3701 393.701
f 8/1/2 11/11/2 12/12/2

usemtl _2
vt -433.071 354.331
vn -1 0 8.40582e-17
v 1 4.178 -10
vt -393.701 164.488
vt -393.701 354.331
f 11/13/4 13/14/4 12/15/4

v 1 4.178 -11
vt -433.071 164.488
f 13/14/4 11/13/4 14/16/4

usemtl _6
vn -8.40582e-17 1.20319e-16 -1
vt -39.3701 164.488
vt -39.3701 354.331
f 10/13/5 14/17/5 11/18/5

v 11 4.178 -11
f 14/17/5 10/13/5 15/16/5

vt 433.071 354.331
vn 1 1.80478e-16 -8.40582e-17
v 11 4.178 -1
vt 39.3701 164.488
vt 433.071 164.488
f 10/19/6 16/20/6 15/21/6

f 16/20/6 10/19/6 9/5/6

vn 8.40582e-17 4.55119e-32 1
v 10 4.178 -1
vt 393.701 164.488
f 9/19/7 17/22/7 16/21/7

f 17/22/7 9/19/7 7/7/7

usemtl _5
f 1/6/3 17/20/3 7/5/3

vt -3.06509e-14 -7.83047e-14
f 3/23/3 17/20/3 1/6/3

v 10 -2.16573e-15 -10
vt 393.701 -1.6357e-13
f 17/20/3 3/23/3 18/24/3

vn -1.08287e-16 -1 1.08287e-16
vt -393.701 393.701
vt -393.701 -4.61654e-30
f 2/2/8 18/25/8 3/26/8

v 0 0 -10
f 18/25/8 2/2/8 19/4/8

vn -1 0 -0
vt -393.701 0
f 2/2/9 5/25/9 19/27/9

f 5/25/9 2/2/9 4/4/9

vn -7.78532e-17 9.57638e-17 -1
vt -3.06509e-14 -3.77023e-14
f 13/17/10 19/28/10 5/6/10

v 10 4.178 -10
f 20/14/10 19/28/10 13/17/10

vt -393.701 -1.22967e-13
f 19/28/10 20/14/10 18/29/10

f 17/20/3 18/24/3 20/22/3

usemtl _6
vn -1.73711e-16 -1 1.73506e-16
vt -433.071 433.071
vt -393.701 39.3701
f 20/25/11 15/30/11 17/31/11

vt -39.3701 393.701
f 13/32/11 15/30/11 20/25/11

vt -39.3701 433.071
f 15/30/11 13/32/11 14/33/11

vt -433.071 39.3701
f 17/31/11 15/30/11 16/34/11

usemtl _5
f 13/17/10 5/6/10 12/18/10

f 12/18/10 5/6/10 8/15/10

f 8/15/10 5/6/10 6/25/10

